<?xml version="1.0" standalone="no"?>
<!DOCTYPE svg PUBLIC "-//W3C//DTD SVG 20010904//EN"
 "http://www.w3.org/TR/2001/REC-SVG-20010904/DTD/svg10.dtd">
<svg version="1.0" xmlns="http://www.w3.org/2000/svg"
 width="700.000000pt" height="700.000000pt" viewBox="0 0 700.000000 700.000000"
 preserveAspectRatio="xMidYMid meet">
<metadata>
Created by potrace 1.11, written by Peter Selinger 2001-2013
</metadata>
<g transform="translate(0.000000,700.000000) scale(0.100000,-0.100000)"
fill="#000000" stroke="none">
<path d="M3465 5299 c-102 -26 -97 -25 -185 -44 -41 -9 -100 -22 -130 -30 -30
-8 -66 -16 -80 -19 -45 -8 -152 -35 -155 -38 -3 -5 -79 -138 -110 -193 -15
-27 -64 -115 -110 -195 -45 -80 -93 -165 -107 -190 -14 -25 -141 -250 -283
-500 -142 -250 -267 -471 -278 -490 -32 -57 -491 -869 -607 -1075 -287 -507
-358 -632 -369 -652 l-12 -23 498 0 499 0 11 28 c16 38 66 150 86 192 9 19 49
112 90 205 103 234 325 741 348 791 126 281 374 846 382 869 5 17 13 35 17 40
4 6 30 62 58 125 27 63 59 136 71 163 11 26 30 66 40 90 23 52 212 480 316
717 42 96 83 188 91 204 26 53 29 52 -81 25z"/>
<path d="M2527 5084 c-2 -2 -228 -56 -287 -69 -8 -2 -54 -12 -102 -24 -48 -11
-98 -23 -110 -25 -83 -16 -114 -27 -129 -47 -15 -20 -173 -274 -234 -375 -37
-63 -289 -469 -330 -534 -70 -110 -220 -353 -224 -364 -2 -5 -8 -15 -13 -21
-5 -5 -66 -102 -135 -215 -69 -113 -154 -250 -188 -305 -371 -599 -601 -969
-620 -1001 -11 -18 -48 -79 -83 -135 -34 -56 -62 -106 -62 -111 0 -4 165 -7
367 -6 l367 3 43 73 c24 41 60 104 80 140 46 84 90 162 103 182 5 8 19 33 31
55 12 22 68 121 124 220 57 99 112 196 122 215 11 19 89 157 173 305 84 149
191 338 237 420 46 83 89 157 94 165 8 14 77 137 152 270 16 30 95 170 175
310 80 140 154 272 166 293 12 21 26 46 31 55 6 9 28 49 49 87 22 39 86 152
143 252 56 99 103 184 103 186 0 5 -38 5 -43 1z"/>
<path d="M3668 4917 c-20 -45 -98 -221 -173 -392 -75 -170 -148 -334 -161
-363 -29 -64 -29 -74 -5 -126 18 -38 248 -535 311 -671 15 -33 43 -93 62 -133
l34 -73 74 178 c40 98 81 196 91 218 10 22 45 108 79 190 34 83 69 168 79 190
10 22 26 63 36 90 l17 50 -151 345 c-84 190 -158 359 -166 376 -8 16 -30 68
-50 114 -20 47 -37 86 -38 87 -2 1 -19 -35 -39 -80z"/>
<path d="M5696 4703 c-2 -3 -50 -11 -101 -17 -16 -2 -71 -11 -120 -20 -50 -9
-103 -17 -119 -18 -15 -1 -32 -11 -37 -20 -8 -15 -139 -392 -259 -748 -16 -47
-77 -224 -135 -395 -165 -480 -329 -957 -415 -1210 -43 -126 -92 -270 -109
-319 -17 -50 -31 -93 -31 -98 0 -4 162 -8 360 -8 l360 0 5 23 c2 12 16 72 31
132 14 61 27 117 29 125 2 8 37 152 79 320 41 168 86 352 100 410 14 58 68
280 120 493 53 213 98 402 101 419 3 17 8 34 10 38 2 3 6 17 8 31 3 13 15 62
27 109 12 47 23 92 25 100 2 8 8 35 14 60 7 25 14 56 17 70 3 14 29 122 59
240 30 118 56 227 59 242 2 15 8 32 11 38 5 7 -9 10 -40 8 -26 -2 -48 -4 -49
-5z"/>
<path d="M5019 4596 c-3 -3 -27 -8 -55 -11 -168 -21 -378 -62 -385 -75 -13
-22 -52 -114 -89 -205 -18 -44 -40 -98 -50 -120 -10 -22 -27 -65 -40 -95 -12
-30 -82 -199 -155 -375 -73 -176 -255 -615 -405 -975 -149 -360 -278 -668
-285 -685 -7 -16 -29 -68 -48 -115 l-36 -85 307 -3 c168 -1 309 1 314 6 5 5
187 526 248 712 5 14 47 138 95 275 47 138 88 257 90 265 2 8 41 121 85 250
45 129 117 339 160 465 43 127 119 349 169 495 81 237 98 293 80 276z"/>
<path d="M5910 4138 c-24 -101 -45 -187 -46 -193 -3 -13 -62 -252 -71 -285 -3
-14 -7 -29 -9 -35 -1 -5 -9 -40 -18 -76 l-16 -66 36 -84 c19 -46 38 -91 41
-99 3 -8 11 -28 18 -45 19 -43 260 -621 311 -745 23 -58 94 -229 157 -380
l115 -275 286 -3 286 -3 -9 24 c-5 13 -113 270 -241 572 -128 302 -235 558
-240 570 -4 11 -17 41 -28 65 -11 25 -45 106 -77 180 -31 74 -63 149 -70 165
-7 17 -41 98 -75 180 -34 83 -68 164 -75 180 -8 17 -59 138 -115 270 -56 131
-105 245 -109 252 -4 7 -26 -68 -51 -169z"/>
<path d="M3075 3572 c-76 -174 -157 -355 -178 -402 -22 -47 -40 -89 -40 -95 0
-5 79 -167 176 -360 259 -517 279 -555 286 -555 4 0 13 17 20 38 8 20 81 199
163 396 l150 360 -68 145 c-37 80 -87 187 -110 236 -23 50 -87 188 -143 308
-55 120 -104 225 -109 232 -5 10 -54 -91 -147 -303z"/>
<path d="M5679 3204 c-1 -14 -5 -30 -37 -164 -17 -69 -56 -228 -87 -355 -31
-126 -63 -258 -71 -293 -14 -56 -14 -67 -1 -95 8 -18 52 -125 98 -239 l83
-208 293 0 c161 0 293 3 293 6 0 3 -6 20 -14 37 -7 18 -21 52 -31 77 -10 25
-31 73 -47 108 -15 35 -28 69 -28 76 0 6 -4 16 -9 21 -4 6 -20 40 -35 78 -14
37 -35 86 -45 110 -11 23 -52 121 -91 217 -66 161 -109 264 -131 315 -5 11
-36 85 -69 164 -60 144 -69 163 -71 145z"/>
</g>
</svg>
